<svg width="1440" height="156" viewBox="0 0 1440 156" fill="none" xmlns="http://www.w3.org/2000/svg">
<mask id="mask0_11_6298" style="mask-type:alpha" maskUnits="userSpaceOnUse" x="0" y="0" width="1440" height="156">
<rect width="1440" height="155.59" fill="#D9D9D9"/>
</mask>
<g mask="url(#mask0_11_6298)">
<path d="M-1201.13 47.7823C-1201.13 47.7823 -1099.63 7.58005 -959.747 4.09382C-795.61 0.00307083 -797.448 46.8551 -631.47 47.7823C-458.116 48.7507 -452.498 4.45838 -279.055 4.09382C-102.606 3.72294 -93.2496 49.1381 83.0148 47.7823C248.904 46.5064 245.484 5.62348 411.292 4.09382C589.739 2.44754 601.88 48.1485 780.603 47.7823C956.299 47.4224 964.581 4.62913 1140.26 4.09382C1320.49 3.54463 1334.92 50.4908 1514.4 47.7823C1674.03 45.3734 1664.41 7.47381 1823.36 4.09382C2012.07 0.081305 2038.61 47.0492 2228.88 47.7823C2426.27 48.5428 2458.7 3.59302 2656.13 4.09382C2848.79 4.58254 2876.48 46.1002 3068.89 47.7823C3278.92 49.6186 3326.67 -0.879033 3534.75 4.09382C3715.81 8.42086 3889.58 53.6335 3889.58 53.6335V74.5385V155.59H-1201.13V47.7823Z" fill="#24335C"/>
</g>
</svg>
