<svg width="32" height="32" viewBox="0 0 32 32" fill="none" xmlns="http://www.w3.org/2000/svg">
<path fill-rule="evenodd" clip-rule="evenodd" d="M7.67021 15.7666C7.67021 11.295 11.295 7.67021 15.7666 7.67021C20.238 7.67021 23.8629 11.295 23.8629 15.7666C23.8629 20.238 20.238 23.8629 15.7666 23.8629C11.295 23.8629 7.67021 20.238 7.67021 15.7666ZM15.7666 21.022C12.864 21.022 10.511 18.6691 10.511 15.7666C10.511 12.864 12.864 10.511 15.7666 10.511C18.6691 10.511 21.022 12.864 21.022 15.7666C21.022 18.6691 18.6691 21.022 15.7666 21.022Z" fill="white"/>
<path d="M24.1827 9.24229C25.2277 9.24229 26.0748 8.39526 26.0748 7.35034C26.0748 6.30541 25.2277 5.45832 24.1827 5.45832C23.1379 5.45832 22.2908 6.30541 22.2908 7.35034C22.2908 8.39526 23.1379 9.24229 24.1827 9.24229Z" fill="white"/>
<path fill-rule="evenodd" clip-rule="evenodd" d="M15.7666 0C11.4846 0 10.9477 0.0181498 9.26601 0.0948794C7.58785 0.171421 6.44172 0.437972 5.43886 0.827754C4.40207 1.23062 3.5228 1.76973 2.64623 2.64623C1.76973 3.5228 1.23062 4.40207 0.827754 5.43886C0.437972 6.44172 0.171421 7.58785 0.0948794 9.26601C0.0181498 10.9477 0 11.4846 0 15.7666C0 20.0485 0.0181498 20.5854 0.0948794 22.2671C0.171421 23.9452 0.437972 25.0914 0.827754 26.0942C1.23062 27.131 1.76973 28.0103 2.64623 28.8868C3.5228 29.7633 4.40207 30.3025 5.43886 30.7054C6.44172 31.0951 7.58785 31.3617 9.26601 31.4382C10.9477 31.5149 11.4846 31.5331 15.7666 31.5331C20.0485 31.5331 20.5854 31.5149 22.2671 31.4382C23.9452 31.3617 25.0914 31.0951 26.0942 30.7054C27.131 30.3025 28.0103 29.7633 28.8868 28.8868C29.7633 28.0103 30.3025 27.131 30.7054 26.0942C31.0951 25.0914 31.3617 23.9452 31.4382 22.2671C31.5149 20.5854 31.5331 20.0485 31.5331 15.7666C31.5331 11.4846 31.5149 10.9477 31.4382 9.26601C31.3617 7.58785 31.0951 6.44172 30.7054 5.43886C30.3025 4.40207 29.7633 3.5228 28.8868 2.64623C28.0103 1.76973 27.131 1.23062 26.0942 0.827754C25.0914 0.437972 23.9452 0.171421 22.2671 0.0948794C20.5854 0.0181498 20.0485 0 15.7666 0ZM15.7666 2.84081C19.9764 2.84081 20.4751 2.8569 22.1376 2.93275C23.6748 3.00285 24.5096 3.2597 25.0652 3.47562C25.8011 3.76163 26.3264 4.10328 26.878 4.65504C27.4298 5.20673 27.7714 5.73194 28.0575 6.46789C28.2734 7.02346 28.5302 7.85828 28.6003 9.3955C28.6762 11.058 28.6923 11.5567 28.6923 15.7666C28.6923 19.9764 28.6762 20.4751 28.6003 22.1376C28.5302 23.6748 28.2734 24.5096 28.0575 25.0652C27.7714 25.8011 27.4298 26.3263 26.878 26.878C26.3264 27.4298 25.8011 27.7714 25.0652 28.0575C24.5096 28.2734 23.6748 28.5302 22.1376 28.6003C20.4753 28.6762 19.9767 28.6923 15.7666 28.6923C11.5564 28.6923 11.0578 28.6762 9.39551 28.6003C7.85828 28.5302 7.02346 28.2734 6.46789 28.0575C5.73195 27.7714 5.20673 27.4298 4.65504 26.878C4.10335 26.3263 3.76163 25.8011 3.47562 25.0652C3.2597 24.5096 3.00285 23.6748 2.93275 22.1376C2.8569 20.4751 2.84082 19.9764 2.84082 15.7666C2.84082 11.5567 2.8569 11.058 2.93275 9.3955C3.00285 7.85828 3.2597 7.02346 3.47562 6.46789C3.76163 5.73194 4.10329 5.20673 4.65504 4.65504C5.20673 4.10328 5.73195 3.76163 6.46789 3.47562C7.02346 3.2597 7.85828 3.00285 9.39551 2.93275C11.058 2.8569 11.5567 2.84081 15.7666 2.84081Z" fill="white"/>
</svg>
