<svg width="32" height="32" viewBox="0 0 32 32" fill="none" xmlns="http://www.w3.org/2000/svg">
<path d="M30.5104 16.2212C30.5104 24.3703 23.9043 30.9764 15.7552 30.9764C7.60613 30.9764 1 24.3703 1 16.2212C1 8.07211 7.60613 1.46597 15.7552 1.46597C23.9043 1.46597 30.5104 8.07211 30.5104 16.2212Z" stroke="white" stroke-width="2"/>
<path fill-rule="evenodd" clip-rule="evenodd" d="M7.13168 16.0549C11.7246 14.0538 14.7873 12.7346 16.3198 12.0972C20.6952 10.2773 21.6043 9.9612 22.1969 9.95076C22.3272 9.94847 22.6187 9.98077 22.8074 10.1339C22.9668 10.2633 23.0107 10.438 23.0317 10.5606C23.0526 10.6832 23.0788 10.9626 23.058 11.1808C22.8209 13.6721 21.795 19.7178 21.273 22.508C21.0522 23.6887 20.6173 24.0846 20.1963 24.1233C19.2814 24.2075 18.5866 23.5187 17.7004 22.9378C16.3138 22.0288 15.5304 21.463 14.1844 20.576C12.6289 19.5509 13.6372 18.9875 14.5237 18.0667C14.7557 17.8258 18.787 14.1591 18.865 13.8264C18.8747 13.7848 18.8838 13.6298 18.7917 13.5479C18.6996 13.466 18.5636 13.494 18.4655 13.5163C18.3264 13.5479 16.1112 15.012 11.8198 17.9088C11.1911 18.3406 10.6215 18.5509 10.1112 18.5399C9.5487 18.5278 8.4666 18.2219 7.66216 17.9604C6.67549 17.6396 5.8913 17.4701 5.95959 16.9254C5.99516 16.6417 6.38585 16.3515 7.13168 16.0549Z" fill="white"/>
</svg>
