<svg width="33" height="33" viewBox="0 0 33 33" fill="none" xmlns="http://www.w3.org/2000/svg">
<path fill-rule="evenodd" clip-rule="evenodd" d="M8.02703 16.0221C8.02703 11.4781 11.8205 7.79451 16.5 7.79451C21.1795 7.79451 24.973 11.4781 24.973 16.0221C24.973 20.566 21.1795 24.2496 16.5 24.2496C11.8205 24.2496 8.02703 20.566 8.02703 16.0221ZM16.5 21.3627C13.4624 21.3627 11 18.9716 11 16.0221C11 13.0724 13.4624 10.6814 16.5 10.6814C19.5376 10.6814 22 13.0724 22 16.0221C22 18.9716 19.5376 21.3627 16.5 21.3627Z" fill="url(#paint0_linear_11_4785)"/>
<path fill-rule="evenodd" clip-rule="evenodd" d="M8.02703 16.0221C8.02703 11.4781 11.8205 7.79451 16.5 7.79451C21.1795 7.79451 24.973 11.4781 24.973 16.0221C24.973 20.566 21.1795 24.2496 16.5 24.2496C11.8205 24.2496 8.02703 20.566 8.02703 16.0221ZM16.5 21.3627C13.4624 21.3627 11 18.9716 11 16.0221C11 13.0724 13.4624 10.6814 16.5 10.6814C19.5376 10.6814 22 13.0724 22 16.0221C22 18.9716 19.5376 21.3627 16.5 21.3627Z" fill="url(#paint1_radial_11_4785)"/>
<path d="M25.3077 9.39207C26.4013 9.39207 27.2878 8.53131 27.2878 7.46945C27.2878 6.40759 26.4013 5.54677 25.3077 5.54677C24.2143 5.54677 23.3278 6.40759 23.3278 7.46945C23.3278 8.53131 24.2143 9.39207 25.3077 9.39207Z" fill="url(#paint2_linear_11_4785)"/>
<path d="M25.3077 9.39207C26.4013 9.39207 27.2878 8.53131 27.2878 7.46945C27.2878 6.40759 26.4013 5.54677 25.3077 5.54677C24.2143 5.54677 23.3278 6.40759 23.3278 7.46945C23.3278 8.53131 24.2143 9.39207 25.3077 9.39207Z" fill="url(#paint3_radial_11_4785)"/>
<path fill-rule="evenodd" clip-rule="evenodd" d="M16.5 0C12.0189 0 11.457 0.0184439 9.69707 0.096417C7.94084 0.174199 6.74139 0.44507 5.69187 0.841168C4.60685 1.25056 3.68669 1.79841 2.76934 2.68912C1.85205 3.57989 1.28786 4.4734 0.866261 5.527C0.458347 6.54611 0.179396 7.71081 0.0992932 9.41617C0.0189941 11.1251 0 11.6707 0 16.0221C0 20.3734 0.0189941 20.919 0.0992932 22.6279C0.179396 24.3333 0.458347 25.498 0.866261 26.5171C1.28786 27.5707 1.85205 28.4642 2.76934 29.355C3.68669 30.2457 4.60685 30.7935 5.69187 31.203C6.74139 31.599 7.94084 31.8699 9.69707 31.9477C11.457 32.0256 12.0189 32.0441 16.5 32.0441C20.9811 32.0441 21.543 32.0256 23.3029 31.9477C25.0592 31.8699 26.2586 31.599 27.3081 31.203C28.3931 30.7935 29.3133 30.2457 30.2307 29.355C31.1479 28.4642 31.7121 27.5707 32.1338 26.5171C32.5417 25.498 32.8206 24.3333 32.9007 22.6279C32.981 20.919 33 20.3734 33 16.0221C33 11.6707 32.981 11.1251 32.9007 9.41617C32.8206 7.71081 32.5417 6.54611 32.1338 5.527C31.7121 4.4734 31.1479 3.57989 30.2307 2.68912C29.3133 1.79841 28.3931 1.25056 27.3081 0.841168C26.2586 0.44507 25.0592 0.174199 23.3029 0.096417C21.543 0.0184439 20.9811 0 16.5 0ZM16.5 2.88685C20.9057 2.88685 21.4276 2.90319 23.1674 2.98028C24.7762 3.05151 25.6498 3.31252 26.2312 3.53194C27.0014 3.82259 27.5511 4.16978 28.1284 4.73047C28.7058 5.2911 29.0634 5.82483 29.3627 6.5727C29.5887 7.13727 29.8575 7.98563 29.9308 9.54776C30.0102 11.2372 30.027 11.744 30.027 16.0221C30.027 20.3001 30.0102 20.8069 29.9308 22.4963C29.8575 24.0584 29.5887 24.9068 29.3627 25.4714C29.0634 26.2192 28.7058 26.753 28.1284 27.3136C27.5511 27.8743 27.0014 28.2215 26.2312 28.5121C25.6498 28.7316 24.7762 28.9926 23.1674 29.0638C21.4278 29.1409 20.906 29.1572 16.5 29.1572C12.094 29.1572 11.5723 29.1409 9.83259 29.0638C8.22385 28.9926 7.35019 28.7316 6.76878 28.5121C5.9986 28.2215 5.44895 27.8743 4.87159 27.3136C4.29424 26.753 3.93663 26.2192 3.63731 25.4714C3.41134 24.9068 3.14254 24.0584 3.06919 22.4963C2.9898 20.8069 2.97297 20.3001 2.97297 16.0221C2.97297 11.744 2.9898 11.2372 3.06919 9.54776C3.14254 7.98563 3.41134 7.13727 3.63731 6.5727C3.93663 5.82483 4.29417 5.2911 4.87159 4.73047C5.44895 4.16978 5.9986 3.82259 6.76878 3.53194C7.35019 3.31252 8.22385 3.05151 9.83259 2.98028C11.5724 2.90319 12.0943 2.88685 16.5 2.88685Z" fill="url(#paint4_linear_11_4785)"/>
<path fill-rule="evenodd" clip-rule="evenodd" d="M16.5 0C12.0189 0 11.457 0.0184439 9.69707 0.096417C7.94084 0.174199 6.74139 0.44507 5.69187 0.841168C4.60685 1.25056 3.68669 1.79841 2.76934 2.68912C1.85205 3.57989 1.28786 4.4734 0.866261 5.527C0.458347 6.54611 0.179396 7.71081 0.0992932 9.41617C0.0189941 11.1251 0 11.6707 0 16.0221C0 20.3734 0.0189941 20.919 0.0992932 22.6279C0.179396 24.3333 0.458347 25.498 0.866261 26.5171C1.28786 27.5707 1.85205 28.4642 2.76934 29.355C3.68669 30.2457 4.60685 30.7935 5.69187 31.203C6.74139 31.599 7.94084 31.8699 9.69707 31.9477C11.457 32.0256 12.0189 32.0441 16.5 32.0441C20.9811 32.0441 21.543 32.0256 23.3029 31.9477C25.0592 31.8699 26.2586 31.599 27.3081 31.203C28.3931 30.7935 29.3133 30.2457 30.2307 29.355C31.1479 28.4642 31.7121 27.5707 32.1338 26.5171C32.5417 25.498 32.8206 24.3333 32.9007 22.6279C32.981 20.919 33 20.3734 33 16.0221C33 11.6707 32.981 11.1251 32.9007 9.41617C32.8206 7.71081 32.5417 6.54611 32.1338 5.527C31.7121 4.4734 31.1479 3.57989 30.2307 2.68912C29.3133 1.79841 28.3931 1.25056 27.3081 0.841168C26.2586 0.44507 25.0592 0.174199 23.3029 0.096417C21.543 0.0184439 20.9811 0 16.5 0ZM16.5 2.88685C20.9057 2.88685 21.4276 2.90319 23.1674 2.98028C24.7762 3.05151 25.6498 3.31252 26.2312 3.53194C27.0014 3.82259 27.5511 4.16978 28.1284 4.73047C28.7058 5.2911 29.0634 5.82483 29.3627 6.5727C29.5887 7.13727 29.8575 7.98563 29.9308 9.54776C30.0102 11.2372 30.027 11.744 30.027 16.0221C30.027 20.3001 30.0102 20.8069 29.9308 22.4963C29.8575 24.0584 29.5887 24.9068 29.3627 25.4714C29.0634 26.2192 28.7058 26.753 28.1284 27.3136C27.5511 27.8743 27.0014 28.2215 26.2312 28.5121C25.6498 28.7316 24.7762 28.9926 23.1674 29.0638C21.4278 29.1409 20.906 29.1572 16.5 29.1572C12.094 29.1572 11.5723 29.1409 9.83259 29.0638C8.22385 28.9926 7.35019 28.7316 6.76878 28.5121C5.9986 28.2215 5.44895 27.8743 4.87159 27.3136C4.29424 26.753 3.93663 26.2192 3.63731 25.4714C3.41134 24.9068 3.14254 24.0584 3.06919 22.4963C2.9898 20.8069 2.97297 20.3001 2.97297 16.0221C2.97297 11.744 2.9898 11.2372 3.06919 9.54776C3.14254 7.98563 3.41134 7.13727 3.63731 6.5727C3.93663 5.82483 4.29417 5.2911 4.87159 4.73047C5.44895 4.16978 5.9986 3.82259 6.76878 3.53194C7.35019 3.31252 8.22385 3.05151 9.83259 2.98028C11.5724 2.90319 12.0943 2.88685 16.5 2.88685Z" fill="url(#paint5_radial_11_4785)"/>
<defs>
<linearGradient id="paint0_linear_11_4785" x1="1.92545" y1="1.68465" x2="11.7712" y2="40.9054" gradientUnits="userSpaceOnUse">
<stop stop-color="#4E60D3"/>
<stop offset="0.142763" stop-color="#913BAF"/>
<stop offset="0.761458" stop-color="#D52D88"/>
<stop offset="1" stop-color="#F26D4F"/>
</linearGradient>
<radialGradient id="paint1_radial_11_4785" cx="0" cy="0" r="1" gradientUnits="userSpaceOnUse" gradientTransform="translate(9.99053 32.0441) rotate(31.4061) scale(30.5699 21.7142)">
<stop stop-color="#FED276"/>
<stop offset="0.17024" stop-color="#FDBD61" stop-opacity="0.975006"/>
<stop offset="0.454081" stop-color="#F6804D"/>
<stop offset="1" stop-color="#E83D5C" stop-opacity="0.01"/>
</radialGradient>
<linearGradient id="paint2_linear_11_4785" x1="1.92545" y1="1.68465" x2="11.7712" y2="40.9054" gradientUnits="userSpaceOnUse">
<stop stop-color="#4E60D3"/>
<stop offset="0.142763" stop-color="#913BAF"/>
<stop offset="0.761458" stop-color="#D52D88"/>
<stop offset="1" stop-color="#F26D4F"/>
</linearGradient>
<radialGradient id="paint3_radial_11_4785" cx="0" cy="0" r="1" gradientUnits="userSpaceOnUse" gradientTransform="translate(9.99053 32.0441) rotate(31.4061) scale(30.5699 21.7142)">
<stop stop-color="#FED276"/>
<stop offset="0.17024" stop-color="#FDBD61" stop-opacity="0.975006"/>
<stop offset="0.454081" stop-color="#F6804D"/>
<stop offset="1" stop-color="#E83D5C" stop-opacity="0.01"/>
</radialGradient>
<linearGradient id="paint4_linear_11_4785" x1="1.92545" y1="1.68465" x2="11.7712" y2="40.9054" gradientUnits="userSpaceOnUse">
<stop stop-color="#4E60D3"/>
<stop offset="0.142763" stop-color="#913BAF"/>
<stop offset="0.761458" stop-color="#D52D88"/>
<stop offset="1" stop-color="#F26D4F"/>
</linearGradient>
<radialGradient id="paint5_radial_11_4785" cx="0" cy="0" r="1" gradientUnits="userSpaceOnUse" gradientTransform="translate(9.99053 32.0441) rotate(31.4061) scale(30.5699 21.7142)">
<stop stop-color="#FED276"/>
<stop offset="0.17024" stop-color="#FDBD61" stop-opacity="0.975006"/>
<stop offset="0.454081" stop-color="#F6804D"/>
<stop offset="1" stop-color="#E83D5C" stop-opacity="0.01"/>
</radialGradient>
</defs>
</svg>
