<svg width="33" height="33" viewBox="0 0 33 33" fill="none" xmlns="http://www.w3.org/2000/svg">
<path d="M16.5118 32.1064C25.618 32.1064 33 24.9383 33 16.0959C33 7.25353 25.618 0.0853729 16.5118 0.0853729C7.40568 0.0853729 0.0236816 7.25353 0.0236816 16.0959C0.0236816 24.9383 7.40568 32.1064 16.5118 32.1064Z" fill="url(#paint0_linear_11_4787)"/>
<path fill-rule="evenodd" clip-rule="evenodd" d="M7.4873 15.9269C12.2939 13.8934 15.4991 12.5528 17.1028 11.9051C21.6818 10.0557 22.6332 9.73448 23.2534 9.72387C23.3898 9.72153 23.6947 9.75436 23.8923 9.91001C24.0591 10.0414 24.105 10.219 24.1269 10.3436C24.1489 10.4682 24.1763 10.7521 24.1545 10.9739C23.9064 13.5055 22.8327 19.6492 22.2865 22.4846C22.0554 23.6844 21.6003 24.0867 21.1597 24.1261C20.2022 24.2117 19.4751 23.5116 18.5477 22.9213C17.0965 21.9976 16.2767 21.4226 14.8681 20.5213C13.2402 19.4796 14.2955 18.907 15.2232 17.9714C15.466 17.7265 19.6848 14.0004 19.7664 13.6624C19.7767 13.6201 19.7861 13.4625 19.6897 13.3793C19.5933 13.2961 19.451 13.3245 19.3484 13.3472C19.2028 13.3792 16.8845 14.8671 12.3936 17.8109C11.7355 18.2496 11.1395 18.4634 10.6055 18.4522C10.0168 18.4399 8.88432 18.129 8.04246 17.8633C7.00989 17.5373 6.18922 17.365 6.26069 16.8115C6.29791 16.5232 6.70678 16.2283 7.4873 15.9269Z" fill="white"/>
<defs>
<linearGradient id="paint0_linear_11_4787" x1="16.5118" y1="0.0853729" x2="16.5118" y2="31.869" gradientUnits="userSpaceOnUse">
<stop stop-color="#2AABEE"/>
<stop offset="1" stop-color="#229ED9"/>
</linearGradient>
</defs>
</svg>
