<svg width="32" height="33" viewBox="0 0 32 33" fill="none" xmlns="http://www.w3.org/2000/svg">
<path d="M11.1896 8.569C11.4732 8.58058 11.787 8.59383 12.0851 9.25473C12.2888 9.70653 12.6316 10.5488 12.9048 11.2201C13.1061 11.7147 13.2696 12.1165 13.3118 12.2007C13.4113 12.3991 13.4776 12.6309 13.3449 12.8959C13.3251 12.9355 13.3067 12.9729 13.2892 13.0086C13.1895 13.2115 13.1162 13.3606 12.9474 13.5577C12.8812 13.6348 12.8128 13.7177 12.7444 13.8007C12.6071 13.9674 12.4697 14.134 12.3504 14.2527C12.1508 14.4506 11.9435 14.6656 12.1757 15.0625C12.4079 15.4598 13.2065 16.7589 14.3894 17.8108C15.6602 18.9409 16.7642 19.4189 17.3248 19.6616C17.4349 19.7093 17.524 19.7479 17.5894 19.7805C17.9874 19.979 18.2195 19.946 18.4516 19.6807C18.6838 19.4161 19.446 18.5223 19.7113 18.1254C19.9766 17.7281 20.2419 17.7943 20.6067 17.9266C20.9715 18.0589 22.9278 19.0191 23.3258 19.2176C23.4034 19.2563 23.4759 19.2912 23.5432 19.3236C23.8209 19.4573 24.0084 19.5475 24.0885 19.6807C24.188 19.8467 24.188 20.641 23.8564 21.5676C23.5248 22.4943 21.9001 23.3881 21.1705 23.4542C21.1003 23.4606 21.0305 23.4688 20.9587 23.4772C20.2844 23.5563 19.4334 23.6561 16.3954 22.4613C12.6573 20.991 10.1926 17.3475 9.68339 16.5948C9.64164 16.5331 9.61303 16.4908 9.59795 16.4707L9.59352 16.4648C9.37895 16.1788 7.97312 14.305 7.97312 12.3661C7.97312 10.5384 8.87389 9.5803 9.28834 9.13949C9.31666 9.10937 9.34271 9.08166 9.36605 9.05626C9.73058 8.6591 10.1618 8.55971 10.427 8.55971C10.4416 8.55971 10.4561 8.55971 10.4707 8.55971C10.7212 8.55968 10.9705 8.55965 11.1896 8.569Z" fill="url(#paint0_linear_11_4786)"/>
<path fill-rule="evenodd" clip-rule="evenodd" d="M2.28113 23.8088C0.867471 21.4054 0.128514 18.6817 0.128514 15.8618C0.128514 7.11378 7.29317 0 16.0643 0C20.3374 0 24.3213 1.66629 27.3414 4.64639C30.3293 7.65853 32 11.632 32 15.8939C32 24.6419 24.8353 31.7557 16.0643 31.7557C13.3976 31.7557 10.7631 31.1148 8.4498 29.833L0 32.0441L2.28113 23.8088ZM4.8514 22.9115L5.17269 23.3922L3.82329 28.2629L8.83534 26.9491L9.31727 27.2375C11.3414 28.4551 13.6867 29.096 16.0643 29.096C23.3574 29.096 29.3012 23.1679 29.3012 15.8939C29.3012 12.369 27.9197 9.03643 25.4137 6.53699C22.9398 4.0696 19.5984 2.6917 16.0643 2.6917C8.77108 2.6917 2.82731 8.58781 2.82731 15.8939C2.82731 18.3613 3.53414 20.7966 4.8514 22.9115Z" fill="url(#paint1_linear_11_4786)"/>
<defs>
<linearGradient id="paint0_linear_11_4786" x1="0" y1="16.0238" x2="32" y2="16.0238" gradientUnits="userSpaceOnUse">
<stop stop-color="#20B038"/>
<stop offset="1" stop-color="#60D66A"/>
</linearGradient>
<linearGradient id="paint1_linear_11_4786" x1="0" y1="16.0238" x2="32" y2="16.0238" gradientUnits="userSpaceOnUse">
<stop stop-color="#20B038"/>
<stop offset="1" stop-color="#60D66A"/>
</linearGradient>
</defs>
</svg>
