<svg width="73" height="73" viewBox="0 0 73 73" fill="none" xmlns="http://www.w3.org/2000/svg">
<path d="M25.0938 9.125V63.875H20.5312V9.125H13.6875V63.875H59.3125V9.125H25.0938ZM11.4062 4.5625H61.5938C62.2599 4.5625 62.8066 4.77618 63.234 5.20353C63.6613 5.63089 63.875 6.17763 63.875 6.84375V66.1562C63.875 66.8224 63.6613 67.3691 63.234 67.7965C62.8066 68.2238 62.2599 68.4375 61.5938 68.4375H11.4062C10.7401 68.4375 10.1934 68.2238 9.76603 67.7965C9.33868 67.3691 9.125 66.8224 9.125 66.1562V6.84375C9.125 6.17763 9.33868 5.63089 9.76603 5.20353C10.1934 4.77618 10.7401 4.5625 11.4062 4.5625ZM34.2188 18.25H47.9062C49.4271 18.25 50.1875 19.0104 50.1875 20.5312C50.1875 22.0521 49.4271 22.8125 47.9062 22.8125H34.2188C32.6979 22.8125 31.9375 22.0521 31.9375 20.5312C31.9375 19.0104 32.6979 18.25 34.2188 18.25ZM34.2188 31.9375H47.9062C49.4271 31.9375 50.1875 32.6979 50.1875 34.2188C50.1875 35.7396 49.4271 36.5 47.9062 36.5H34.2188C32.6979 36.5 31.9375 35.7396 31.9375 34.2188C31.9375 32.6979 32.6979 31.9375 34.2188 31.9375ZM34.2188 45.625H47.9062C49.4271 45.625 50.1875 46.3854 50.1875 47.9062C50.1875 49.4271 49.4271 50.1875 47.9062 50.1875H34.2188C32.6979 50.1875 31.9375 49.4271 31.9375 47.9062C31.9375 46.3854 32.6979 45.625 34.2188 45.625Z" fill="#2157F2"/>
</svg>
