<svg width="21" height="21" viewBox="0 0 21 21" fill="none" xmlns="http://www.w3.org/2000/svg">
<path fill-rule="evenodd" clip-rule="evenodd" d="M1.75 10.5C1.75 10.0168 2.14176 9.625 2.62499 9.625H18.375C18.8582 9.625 19.25 10.0168 19.25 10.5C19.25 10.9833 18.8582 11.3751 18.375 11.3751H2.62499C2.14176 11.3751 1.75 10.9833 1.75 10.5Z" fill="#2157F2"/>
<path fill-rule="evenodd" clip-rule="evenodd" d="M12.5063 4.63128C12.8479 4.28957 13.402 4.28957 13.7437 4.63128L18.9937 9.88132C19.3353 10.2229 19.3353 10.777 18.9937 11.1187L13.7437 16.3687C13.402 16.7104 12.8479 16.7104 12.5063 16.3687C12.1646 16.027 12.1646 15.4729 12.5063 15.1313L17.1375 10.5L12.5063 5.86872C12.1646 5.52701 12.1646 4.973 12.5063 4.63128Z" fill="#2157F2"/>
</svg>
