<svg width="256" height="256" viewBox="0 0 256 256" fill="none" xmlns="http://www.w3.org/2000/svg">
<g clip-path="url(#clip0_62101_679)">
<path d="M128 0C198.692 0 256 57.308 256 128C256 198.692 198.692 256 128 256C57.308 256 0 198.692 0 128C0 57.308 57.308 0 128 0Z" fill="#3178C6"/>
<path d="M140.463 160.712V185.742C144.48 187.829 149.23 189.393 154.713 190.436C160.197 191.479 165.977 192 172.053 192C177.974 192 183.6 191.426 188.929 190.279C194.258 189.132 198.931 187.242 202.947 184.608C206.963 181.975 210.143 178.533 212.486 174.283C214.829 170.033 216.001 164.779 216 158.522C216 153.985 215.331 150.009 213.992 146.593C212.673 143.207 210.705 140.112 208.199 137.481C205.676 134.821 202.651 132.435 199.124 130.324C195.597 128.212 191.62 126.217 187.191 124.34C183.947 122.984 181.038 121.667 178.463 120.39C175.89 119.113 173.701 117.809 171.898 116.479C170.096 115.149 168.706 113.741 167.728 112.255C166.75 110.769 166.261 109.087 166.26 107.21C166.26 105.489 166.698 103.938 167.573 102.556C168.449 101.174 169.685 99.9873 171.28 98.996C172.877 98.0053 174.833 97.2363 177.15 96.689C179.467 96.1423 182.042 95.8687 184.874 95.868C186.934 95.868 189.109 96.0247 191.4 96.338C193.692 96.65 195.996 97.132 198.313 97.784C200.624 98.4351 202.883 99.2588 205.071 100.248C207.196 101.202 209.226 102.354 211.134 103.69V80.302C207.375 78.842 203.269 77.76 198.815 77.056C194.362 76.352 189.251 76 183.484 76C177.614 76 172.053 76.6387 166.801 77.916C161.549 79.194 156.928 81.1887 152.937 83.9C148.946 86.6113 145.793 90.066 143.476 94.264C141.159 98.462 140.001 103.481 140 109.322C140 116.779 142.124 123.14 146.372 128.407C150.62 133.674 157.069 138.132 165.72 141.783C168.914 143.102 172.081 144.484 175.22 145.929C178.154 147.284 180.69 148.692 182.827 150.152C184.964 151.613 186.65 153.203 187.886 154.924C189.122 156.645 189.74 158.6 189.74 160.79C189.751 162.365 189.352 163.915 188.581 165.288C187.809 166.67 186.638 167.869 185.067 168.886C183.496 169.903 181.54 170.698 179.197 171.272C176.854 171.845 174.112 172.132 170.972 172.132C165.617 172.132 160.313 171.18 155.061 169.277C149.809 167.374 144.943 164.519 140.463 160.712ZM97.711 98.542H130V78H40V98.541H72.132V190H97.71L97.711 98.542Z" fill="white"/>
</g>
<defs>
<clipPath id="clip0_62101_679">
<rect width="256" height="256" fill="white"/>
</clipPath>
</defs>
</svg>
