<svg width="142" height="33" viewBox="0 0 142 33" fill="none" xmlns="http://www.w3.org/2000/svg">
<path fill-rule="evenodd" clip-rule="evenodd" d="M8.02703 16.0221C8.02703 11.4781 11.8205 7.79451 16.5 7.79451C21.1795 7.79451 24.973 11.4781 24.973 16.0221C24.973 20.566 21.1795 24.2496 16.5 24.2496C11.8205 24.2496 8.02703 20.566 8.02703 16.0221ZM16.5 21.3627C13.4624 21.3627 11 18.9716 11 16.0221C11 13.0724 13.4624 10.6814 16.5 10.6814C19.5376 10.6814 22 13.0724 22 16.0221C22 18.9716 19.5376 21.3627 16.5 21.3627Z" fill="url(#paint0_linear_11_4784)"/>
<path fill-rule="evenodd" clip-rule="evenodd" d="M8.02703 16.0221C8.02703 11.4781 11.8205 7.79451 16.5 7.79451C21.1795 7.79451 24.973 11.4781 24.973 16.0221C24.973 20.566 21.1795 24.2496 16.5 24.2496C11.8205 24.2496 8.02703 20.566 8.02703 16.0221ZM16.5 21.3627C13.4624 21.3627 11 18.9716 11 16.0221C11 13.0724 13.4624 10.6814 16.5 10.6814C19.5376 10.6814 22 13.0724 22 16.0221C22 18.9716 19.5376 21.3627 16.5 21.3627Z" fill="url(#paint1_radial_11_4784)"/>
<path d="M25.3077 9.39207C26.4013 9.39207 27.2878 8.53131 27.2878 7.46945C27.2878 6.40759 26.4013 5.54677 25.3077 5.54677C24.2143 5.54677 23.3278 6.40759 23.3278 7.46945C23.3278 8.53131 24.2143 9.39207 25.3077 9.39207Z" fill="url(#paint2_linear_11_4784)"/>
<path d="M25.3077 9.39207C26.4013 9.39207 27.2878 8.53131 27.2878 7.46945C27.2878 6.40759 26.4013 5.54677 25.3077 5.54677C24.2143 5.54677 23.3278 6.40759 23.3278 7.46945C23.3278 8.53131 24.2143 9.39207 25.3077 9.39207Z" fill="url(#paint3_radial_11_4784)"/>
<path fill-rule="evenodd" clip-rule="evenodd" d="M16.5 0C12.0189 0 11.457 0.0184439 9.69707 0.096417C7.94084 0.174199 6.74139 0.44507 5.69187 0.841168C4.60685 1.25056 3.68669 1.79841 2.76934 2.68912C1.85205 3.57989 1.28786 4.4734 0.866261 5.527C0.458347 6.54611 0.179396 7.71081 0.0992932 9.41617C0.0189941 11.1251 0 11.6707 0 16.0221C0 20.3734 0.0189941 20.919 0.0992932 22.6279C0.179396 24.3333 0.458347 25.498 0.866261 26.5171C1.28786 27.5707 1.85205 28.4642 2.76934 29.355C3.68669 30.2457 4.60685 30.7935 5.69187 31.203C6.74139 31.599 7.94084 31.8699 9.69707 31.9477C11.457 32.0256 12.0189 32.0441 16.5 32.0441C20.9811 32.0441 21.543 32.0256 23.3029 31.9477C25.0592 31.8699 26.2586 31.599 27.3081 31.203C28.3931 30.7935 29.3133 30.2457 30.2307 29.355C31.1479 28.4642 31.7121 27.5707 32.1338 26.5171C32.5417 25.498 32.8206 24.3333 32.9007 22.6279C32.981 20.919 33 20.3734 33 16.0221C33 11.6707 32.981 11.1251 32.9007 9.41617C32.8206 7.71081 32.5417 6.54611 32.1338 5.527C31.7121 4.4734 31.1479 3.57989 30.2307 2.68912C29.3133 1.79841 28.3931 1.25056 27.3081 0.841168C26.2586 0.44507 25.0592 0.174199 23.3029 0.096417C21.543 0.0184439 20.9811 0 16.5 0ZM16.5 2.88685C20.9057 2.88685 21.4276 2.90319 23.1674 2.98028C24.7762 3.05151 25.6498 3.31252 26.2312 3.53194C27.0014 3.82259 27.5511 4.16978 28.1284 4.73047C28.7058 5.2911 29.0634 5.82483 29.3627 6.5727C29.5887 7.13727 29.8575 7.98563 29.9308 9.54776C30.0102 11.2372 30.027 11.744 30.027 16.0221C30.027 20.3001 30.0102 20.8069 29.9308 22.4963C29.8575 24.0585 29.5887 24.9068 29.3627 25.4714C29.0634 26.2192 28.7058 26.753 28.1284 27.3136C27.5511 27.8743 27.0014 28.2215 26.2312 28.5121C25.6498 28.7316 24.7762 28.9926 23.1674 29.0638C21.4278 29.1409 20.906 29.1572 16.5 29.1572C12.094 29.1572 11.5723 29.1409 9.83259 29.0638C8.22385 28.9926 7.35019 28.7316 6.76878 28.5121C5.9986 28.2215 5.44895 27.8743 4.87159 27.3136C4.29424 26.753 3.93663 26.2192 3.63731 25.4714C3.41134 24.9068 3.14254 24.0585 3.06919 22.4963C2.9898 20.8069 2.97297 20.3001 2.97297 16.0221C2.97297 11.744 2.9898 11.2372 3.06919 9.54776C3.14254 7.98563 3.41134 7.13727 3.63731 6.5727C3.93663 5.82483 4.29417 5.2911 4.87159 4.73047C5.44895 4.16978 5.9986 3.82259 6.76878 3.53194C7.35019 3.31252 8.22385 3.05151 9.83259 2.98028C11.5724 2.90319 12.0943 2.88685 16.5 2.88685Z" fill="url(#paint4_linear_11_4784)"/>
<path fill-rule="evenodd" clip-rule="evenodd" d="M16.5 0C12.0189 0 11.457 0.0184439 9.69707 0.096417C7.94084 0.174199 6.74139 0.44507 5.69187 0.841168C4.60685 1.25056 3.68669 1.79841 2.76934 2.68912C1.85205 3.57989 1.28786 4.4734 0.866261 5.527C0.458347 6.54611 0.179396 7.71081 0.0992932 9.41617C0.0189941 11.1251 0 11.6707 0 16.0221C0 20.3734 0.0189941 20.919 0.0992932 22.6279C0.179396 24.3333 0.458347 25.498 0.866261 26.5171C1.28786 27.5707 1.85205 28.4642 2.76934 29.355C3.68669 30.2457 4.60685 30.7935 5.69187 31.203C6.74139 31.599 7.94084 31.8699 9.69707 31.9477C11.457 32.0256 12.0189 32.0441 16.5 32.0441C20.9811 32.0441 21.543 32.0256 23.3029 31.9477C25.0592 31.8699 26.2586 31.599 27.3081 31.203C28.3931 30.7935 29.3133 30.2457 30.2307 29.355C31.1479 28.4642 31.7121 27.5707 32.1338 26.5171C32.5417 25.498 32.8206 24.3333 32.9007 22.6279C32.981 20.919 33 20.3734 33 16.0221C33 11.6707 32.981 11.1251 32.9007 9.41617C32.8206 7.71081 32.5417 6.54611 32.1338 5.527C31.7121 4.4734 31.1479 3.57989 30.2307 2.68912C29.3133 1.79841 28.3931 1.25056 27.3081 0.841168C26.2586 0.44507 25.0592 0.174199 23.3029 0.096417C21.543 0.0184439 20.9811 0 16.5 0ZM16.5 2.88685C20.9057 2.88685 21.4276 2.90319 23.1674 2.98028C24.7762 3.05151 25.6498 3.31252 26.2312 3.53194C27.0014 3.82259 27.5511 4.16978 28.1284 4.73047C28.7058 5.2911 29.0634 5.82483 29.3627 6.5727C29.5887 7.13727 29.8575 7.98563 29.9308 9.54776C30.0102 11.2372 30.027 11.744 30.027 16.0221C30.027 20.3001 30.0102 20.8069 29.9308 22.4963C29.8575 24.0585 29.5887 24.9068 29.3627 25.4714C29.0634 26.2192 28.7058 26.753 28.1284 27.3136C27.5511 27.8743 27.0014 28.2215 26.2312 28.5121C25.6498 28.7316 24.7762 28.9926 23.1674 29.0638C21.4278 29.1409 20.906 29.1572 16.5 29.1572C12.094 29.1572 11.5723 29.1409 9.83259 29.0638C8.22385 28.9926 7.35019 28.7316 6.76878 28.5121C5.9986 28.2215 5.44895 27.8743 4.87159 27.3136C4.29424 26.753 3.93663 26.2192 3.63731 25.4714C3.41134 24.9068 3.14254 24.0585 3.06919 22.4963C2.9898 20.8069 2.97297 20.3001 2.97297 16.0221C2.97297 11.744 2.9898 11.2372 3.06919 9.54776C3.14254 7.98563 3.41134 7.13727 3.63731 6.5727C3.93663 5.82483 4.29417 5.2911 4.87159 4.73047C5.44895 4.16978 5.9986 3.82259 6.76878 3.53194C7.35019 3.31252 8.22385 3.05151 9.83259 2.98028C11.5724 2.90319 12.0943 2.88685 16.5 2.88685Z" fill="url(#paint5_radial_11_4784)"/>
<path d="M66.1896 8.569C66.4732 8.58058 66.787 8.59383 67.0851 9.25473C67.2888 9.70653 67.6316 10.5488 67.9048 11.2201C68.1061 11.7147 68.2696 12.1165 68.3118 12.2007C68.4113 12.3991 68.4776 12.6309 68.3449 12.8959C68.3251 12.9355 68.3067 12.9729 68.2892 13.0086C68.1895 13.2115 68.1162 13.3606 67.9474 13.5577C67.8812 13.6348 67.8128 13.7177 67.7444 13.8007C67.6071 13.9674 67.4697 14.134 67.3504 14.2527C67.1508 14.4506 66.9435 14.6656 67.1757 15.0625C67.4079 15.4598 68.2065 16.7589 69.3894 17.8108C70.6602 18.9409 71.7642 19.4189 72.3248 19.6616C72.4349 19.7093 72.524 19.7479 72.5894 19.7805C72.9874 19.979 73.2195 19.946 73.4516 19.6807C73.6838 19.4161 74.446 18.5223 74.7113 18.1254C74.9766 17.7281 75.2419 17.7943 75.6067 17.9266C75.9715 18.0589 77.9278 19.0191 78.3258 19.2176C78.4034 19.2563 78.4759 19.2912 78.5432 19.3236C78.8209 19.4573 79.0084 19.5475 79.0885 19.6807C79.188 19.8467 79.188 20.641 78.8564 21.5676C78.5248 22.4943 76.9001 23.3881 76.1705 23.4542C76.1003 23.4606 76.0305 23.4688 75.9587 23.4772C75.2844 23.5563 74.4334 23.6561 71.3954 22.4613C67.6573 20.991 65.1926 17.3475 64.6834 16.5948C64.6416 16.5331 64.613 16.4908 64.5979 16.4707L64.5935 16.4648C64.379 16.1788 62.9731 14.305 62.9731 12.3661C62.9731 10.5384 63.8739 9.5803 64.2883 9.13949C64.3167 9.10937 64.3427 9.08166 64.366 9.05626C64.7306 8.6591 65.1618 8.55971 65.427 8.55971C65.4416 8.55971 65.4561 8.55971 65.4707 8.55971C65.7212 8.55968 65.9705 8.55965 66.1896 8.569Z" fill="url(#paint6_linear_11_4784)"/>
<path fill-rule="evenodd" clip-rule="evenodd" d="M57.2811 23.8088C55.8675 21.4054 55.1285 18.6817 55.1285 15.8618C55.1285 7.11378 62.2932 0 71.0643 0C75.3374 0 79.3213 1.66629 82.3414 4.64639C85.3293 7.65853 87 11.632 87 15.8939C87 24.6419 79.8353 31.7557 71.0643 31.7557C68.3976 31.7557 65.7631 31.1148 63.4498 29.833L55 32.0441L57.2811 23.8088ZM59.8514 22.9115L60.1727 23.3922L58.8233 28.2629L63.8353 26.9491L64.3173 27.2375C66.3414 28.4551 68.6867 29.096 71.0643 29.096C78.3574 29.096 84.3012 23.1679 84.3012 15.8939C84.3012 12.369 82.9197 9.03643 80.4137 6.53699C77.9398 4.0696 74.5984 2.6917 71.0643 2.6917C63.7711 2.6917 57.8273 8.58781 57.8273 15.8939C57.8273 18.3613 58.5341 20.7966 59.8514 22.9115Z" fill="url(#paint7_linear_11_4784)"/>
<path d="M125.512 32.1064C134.618 32.1064 142 24.9383 142 16.0959C142 7.25353 134.618 0.0853729 125.512 0.0853729C116.406 0.0853729 109.024 7.25353 109.024 16.0959C109.024 24.9383 116.406 32.1064 125.512 32.1064Z" fill="url(#paint8_linear_11_4784)"/>
<path fill-rule="evenodd" clip-rule="evenodd" d="M116.487 15.9269C121.294 13.8934 124.499 12.5528 126.103 11.9051C130.682 10.0557 131.633 9.73448 132.253 9.72387C132.39 9.72153 132.695 9.75436 132.892 9.91001C133.059 10.0414 133.105 10.219 133.127 10.3436C133.149 10.4682 133.176 10.7521 133.155 10.9739C132.906 13.5055 131.833 19.6492 131.286 22.4846C131.055 23.6844 130.6 24.0867 130.16 24.1261C129.202 24.2117 128.475 23.5116 127.548 22.9213C126.097 21.9976 125.277 21.4226 123.868 20.5213C122.24 19.4796 123.296 18.907 124.223 17.9714C124.466 17.7265 128.685 14.0004 128.766 13.6624C128.777 13.6201 128.786 13.4625 128.69 13.3793C128.593 13.2961 128.451 13.3245 128.348 13.3472C128.203 13.3792 125.885 14.8671 121.394 17.8109C120.736 18.2496 120.139 18.4634 119.605 18.4522C119.017 18.4399 117.884 18.129 117.042 17.8633C116.01 17.5373 115.189 17.365 115.261 16.8115C115.298 16.5232 115.707 16.2283 116.487 15.9269Z" fill="white"/>
<defs>
<linearGradient id="paint0_linear_11_4784" x1="1.92545" y1="1.68465" x2="11.7712" y2="40.9054" gradientUnits="userSpaceOnUse">
<stop stop-color="#4E60D3"/>
<stop offset="0.142763" stop-color="#913BAF"/>
<stop offset="0.761458" stop-color="#D52D88"/>
<stop offset="1" stop-color="#F26D4F"/>
</linearGradient>
<radialGradient id="paint1_radial_11_4784" cx="0" cy="0" r="1" gradientUnits="userSpaceOnUse" gradientTransform="translate(9.99053 32.0441) rotate(31.4061) scale(30.5699 21.7142)">
<stop stop-color="#FED276"/>
<stop offset="0.17024" stop-color="#FDBD61" stop-opacity="0.975006"/>
<stop offset="0.454081" stop-color="#F6804D"/>
<stop offset="1" stop-color="#E83D5C" stop-opacity="0.01"/>
</radialGradient>
<linearGradient id="paint2_linear_11_4784" x1="1.92545" y1="1.68465" x2="11.7712" y2="40.9054" gradientUnits="userSpaceOnUse">
<stop stop-color="#4E60D3"/>
<stop offset="0.142763" stop-color="#913BAF"/>
<stop offset="0.761458" stop-color="#D52D88"/>
<stop offset="1" stop-color="#F26D4F"/>
</linearGradient>
<radialGradient id="paint3_radial_11_4784" cx="0" cy="0" r="1" gradientUnits="userSpaceOnUse" gradientTransform="translate(9.99053 32.0441) rotate(31.4061) scale(30.5699 21.7142)">
<stop stop-color="#FED276"/>
<stop offset="0.17024" stop-color="#FDBD61" stop-opacity="0.975006"/>
<stop offset="0.454081" stop-color="#F6804D"/>
<stop offset="1" stop-color="#E83D5C" stop-opacity="0.01"/>
</radialGradient>
<linearGradient id="paint4_linear_11_4784" x1="1.92545" y1="1.68465" x2="11.7712" y2="40.9054" gradientUnits="userSpaceOnUse">
<stop stop-color="#4E60D3"/>
<stop offset="0.142763" stop-color="#913BAF"/>
<stop offset="0.761458" stop-color="#D52D88"/>
<stop offset="1" stop-color="#F26D4F"/>
</linearGradient>
<radialGradient id="paint5_radial_11_4784" cx="0" cy="0" r="1" gradientUnits="userSpaceOnUse" gradientTransform="translate(9.99053 32.0441) rotate(31.4061) scale(30.5699 21.7142)">
<stop stop-color="#FED276"/>
<stop offset="0.17024" stop-color="#FDBD61" stop-opacity="0.975006"/>
<stop offset="0.454081" stop-color="#F6804D"/>
<stop offset="1" stop-color="#E83D5C" stop-opacity="0.01"/>
</radialGradient>
<linearGradient id="paint6_linear_11_4784" x1="55" y1="16.0238" x2="87" y2="16.0238" gradientUnits="userSpaceOnUse">
<stop stop-color="#20B038"/>
<stop offset="1" stop-color="#60D66A"/>
</linearGradient>
<linearGradient id="paint7_linear_11_4784" x1="55" y1="16.0238" x2="87" y2="16.0238" gradientUnits="userSpaceOnUse">
<stop stop-color="#20B038"/>
<stop offset="1" stop-color="#60D66A"/>
</linearGradient>
<linearGradient id="paint8_linear_11_4784" x1="125.512" y1="0.0853729" x2="125.512" y2="31.869" gradientUnits="userSpaceOnUse">
<stop stop-color="#2AABEE"/>
<stop offset="1" stop-color="#229ED9"/>
</linearGradient>
</defs>
</svg>
