<svg width="32" height="129" viewBox="0 0 32 129" fill="none" xmlns="http://www.w3.org/2000/svg">
<path fill-rule="evenodd" clip-rule="evenodd" d="M7.67021 15.7666C7.67021 11.295 11.295 7.67021 15.7666 7.67021C20.238 7.67021 23.8629 11.295 23.8629 15.7666C23.8629 20.238 20.238 23.8629 15.7666 23.8629C11.295 23.8629 7.67021 20.238 7.67021 15.7666ZM15.7666 21.022C12.864 21.022 10.511 18.6691 10.511 15.7666C10.511 12.864 12.864 10.511 15.7666 10.511C18.6691 10.511 21.022 12.864 21.022 15.7666C21.022 18.6691 18.6691 21.022 15.7666 21.022Z" fill="white"/>
<path d="M24.1827 9.24229C25.2277 9.24229 26.0748 8.39526 26.0748 7.35034C26.0748 6.30541 25.2277 5.45832 24.1827 5.45832C23.1379 5.45832 22.2908 6.30541 22.2908 7.35034C22.2908 8.39526 23.1379 9.24229 24.1827 9.24229Z" fill="white"/>
<path fill-rule="evenodd" clip-rule="evenodd" d="M15.7666 0C11.4846 0 10.9477 0.0181498 9.26601 0.0948794C7.58785 0.171421 6.44172 0.437972 5.43886 0.827754C4.40207 1.23062 3.5228 1.76973 2.64623 2.64623C1.76973 3.5228 1.23062 4.40207 0.827754 5.43886C0.437972 6.44172 0.171421 7.58785 0.0948794 9.26601C0.0181498 10.9477 0 11.4846 0 15.7666C0 20.0485 0.0181498 20.5854 0.0948794 22.2671C0.171421 23.9452 0.437972 25.0914 0.827754 26.0942C1.23062 27.131 1.76973 28.0103 2.64623 28.8868C3.5228 29.7633 4.40207 30.3025 5.43886 30.7054C6.44172 31.0951 7.58785 31.3617 9.26601 31.4382C10.9477 31.5149 11.4846 31.5331 15.7666 31.5331C20.0485 31.5331 20.5854 31.5149 22.2671 31.4382C23.9452 31.3617 25.0914 31.0951 26.0942 30.7054C27.131 30.3025 28.0103 29.7633 28.8868 28.8868C29.7633 28.0103 30.3025 27.131 30.7054 26.0942C31.0951 25.0914 31.3617 23.9452 31.4382 22.2671C31.5149 20.5854 31.5331 20.0485 31.5331 15.7666C31.5331 11.4846 31.5149 10.9477 31.4382 9.26601C31.3617 7.58785 31.0951 6.44172 30.7054 5.43886C30.3025 4.40207 29.7633 3.5228 28.8868 2.64623C28.0103 1.76973 27.131 1.23062 26.0942 0.827754C25.0914 0.437972 23.9452 0.171421 22.2671 0.0948794C20.5854 0.0181498 20.0485 0 15.7666 0ZM15.7666 2.84081C19.9764 2.84081 20.4751 2.8569 22.1376 2.93275C23.6748 3.00285 24.5096 3.2597 25.0652 3.47562C25.8011 3.76163 26.3264 4.10328 26.878 4.65504C27.4298 5.20673 27.7714 5.73194 28.0575 6.46789C28.2734 7.02346 28.5302 7.85828 28.6003 9.3955C28.6762 11.058 28.6923 11.5567 28.6923 15.7666C28.6923 19.9764 28.6762 20.4751 28.6003 22.1376C28.5302 23.6748 28.2734 24.5096 28.0575 25.0652C27.7714 25.8011 27.4298 26.3263 26.878 26.878C26.3264 27.4298 25.8011 27.7714 25.0652 28.0575C24.5096 28.2734 23.6748 28.5302 22.1376 28.6003C20.4753 28.6762 19.9767 28.6923 15.7666 28.6923C11.5564 28.6923 11.0578 28.6762 9.39551 28.6003C7.85828 28.5302 7.02346 28.2734 6.46789 28.0575C5.73195 27.7714 5.20673 27.4298 4.65504 26.878C4.10335 26.3263 3.76163 25.8011 3.47562 25.0652C3.2597 24.5096 3.00285 23.6748 2.93275 22.1376C2.8569 20.4751 2.84082 19.9764 2.84082 15.7666C2.84082 11.5567 2.8569 11.058 2.93275 9.3955C3.00285 7.85828 3.2597 7.02346 3.47562 6.46789C3.76163 5.73194 4.10329 5.20673 4.65504 4.65504C5.20673 4.10328 5.73195 3.76163 6.46789 3.47562C7.02346 3.2597 7.85828 3.00285 9.39551 2.93275C11.058 2.8569 11.5567 2.84081 15.7666 2.84081Z" fill="white"/>
<path d="M11.6478 57.1653C11.9188 57.1767 12.2186 57.1898 12.5034 57.8401C12.6981 58.2847 13.0257 59.1136 13.2867 59.7741C13.479 60.2609 13.6353 60.6562 13.6756 60.7391C13.7707 60.9344 13.834 61.1624 13.7073 61.4232C13.6883 61.4622 13.6708 61.499 13.654 61.5342C13.5587 61.7339 13.4887 61.8806 13.3274 62.0745C13.2642 62.1503 13.1989 62.232 13.1335 62.3136C13.0022 62.4776 12.871 62.6416 12.757 62.7584C12.5663 62.9531 12.3682 63.1647 12.59 63.5553C12.8119 63.9463 13.575 65.2247 14.7054 66.2598C15.9196 67.3718 16.9745 67.8422 17.5102 68.081C17.6154 68.128 17.7006 68.1659 17.7631 68.1981C18.1433 68.3934 18.3652 68.3609 18.587 68.0998C18.8088 67.8394 19.5371 66.96 19.7907 66.5694C20.0441 66.1784 20.2977 66.2435 20.6462 66.3737C20.9949 66.5039 22.8642 67.4488 23.2445 67.6441C23.3186 67.6822 23.3879 67.7165 23.4522 67.7484C23.7176 67.88 23.8968 67.9688 23.9733 68.0998C24.0684 68.2632 24.0684 69.0448 23.7515 69.9566C23.4346 70.8686 21.8822 71.7481 21.185 71.8132C21.1179 71.8195 21.0512 71.8275 20.9826 71.8358C20.3383 71.9136 19.5251 72.0118 16.6222 70.8361C13.0503 69.3892 10.6951 65.8039 10.2085 65.0632C10.1686 65.0024 10.1413 64.9608 10.1269 64.9411L10.1226 64.9353C9.9176 64.6538 8.57426 62.8099 8.57426 60.9019C8.57426 59.1033 9.435 58.1605 9.83102 57.7267C9.85808 57.6971 9.88297 57.6698 9.90527 57.6448C10.2536 57.254 10.6656 57.1562 10.9191 57.1562C10.933 57.1562 10.9469 57.1562 10.9608 57.1562C11.2002 57.1562 11.4384 57.1561 11.6478 57.1653Z" fill="url(#paint0_linear_11_4528)"/>
<path fill-rule="evenodd" clip-rule="evenodd" d="M3.13529 72.1621C1.78448 69.7971 1.07837 67.1168 1.07837 64.3419C1.07837 55.7333 7.92454 48.733 16.3057 48.733C20.3889 48.733 24.1957 50.3727 27.0815 53.3053C29.9367 56.2694 31.5331 60.1795 31.5331 64.3734C31.5331 72.9819 24.6869 79.9823 16.3057 79.9823C13.7576 79.9823 11.2402 79.3516 9.02975 78.0903L0.955566 80.2661L3.13529 72.1621ZM5.59132 71.2791L5.89832 71.7521L4.60891 76.5452L9.39816 75.2523L9.85866 75.5361C11.7928 76.7344 14.0339 77.365 16.3057 77.365C23.2747 77.365 28.9543 71.5314 28.9543 64.3734C28.9543 60.9048 27.6342 57.6253 25.2395 55.1657C22.8756 52.7377 19.6828 51.3818 16.3057 51.3818C9.33676 51.3818 3.6572 57.1839 3.6572 64.3734C3.6572 66.8014 4.3326 69.198 5.59132 71.2791Z" fill="url(#paint1_linear_11_4528)"/>
<path d="M30.5104 113.221C30.5104 121.37 23.9043 127.976 15.7552 127.976C7.60614 127.976 1 121.37 1 113.221C1 105.072 7.60614 98.466 15.7552 98.466C23.9043 98.466 30.5104 105.072 30.5104 113.221Z" stroke="white" stroke-width="2"/>
<path fill-rule="evenodd" clip-rule="evenodd" d="M7.13168 113.055C11.7246 111.054 14.7873 109.735 16.3198 109.097C20.6952 107.277 21.6043 106.961 22.1969 106.951C22.3272 106.948 22.6187 106.981 22.8074 107.134C22.9668 107.263 23.0107 107.438 23.0317 107.561C23.0526 107.683 23.0788 107.963 23.058 108.181C22.8209 110.672 21.795 116.718 21.273 119.508C21.0522 120.689 20.6173 121.085 20.1963 121.123C19.2814 121.208 18.5866 120.519 17.7004 119.938C16.3138 119.029 15.5304 118.463 14.1844 117.576C12.6289 116.551 13.6372 115.987 14.5237 115.067C14.7557 114.826 18.787 111.159 18.865 110.826C18.8747 110.785 18.8838 110.63 18.7917 110.548C18.6996 110.466 18.5636 110.494 18.4655 110.516C18.3264 110.548 16.1112 112.012 11.8198 114.909C11.1911 115.341 10.6215 115.551 10.1112 115.54C9.5487 115.528 8.4666 115.222 7.66216 114.96C6.67549 114.64 5.8913 114.47 5.95959 113.925C5.99516 113.642 6.38585 113.352 7.13168 113.055Z" fill="white"/>
<defs>
<linearGradient id="paint0_linear_11_4528" x1="0.955566" y1="64.5013" x2="31.5331" y2="64.5013" gradientUnits="userSpaceOnUse">
<stop stop-color="white"/>
<stop offset="0.609375" stop-color="white"/>
<stop offset="1" stop-color="white"/>
</linearGradient>
<linearGradient id="paint1_linear_11_4528" x1="0.955566" y1="64.5013" x2="31.5331" y2="64.5013" gradientUnits="userSpaceOnUse">
<stop stop-color="white"/>
<stop offset="0.609375" stop-color="white"/>
<stop offset="1" stop-color="white"/>
</linearGradient>
</defs>
</svg>
