<svg width="28" height="28" viewBox="0 0 28 28" fill="none" xmlns="http://www.w3.org/2000/svg">
<path fill-rule="evenodd" clip-rule="evenodd" d="M2.33325 14.0002C2.33325 13.3559 2.85559 12.8335 3.49991 12.8335H24.4999C25.1442 12.8335 25.6666 13.3559 25.6666 14.0002C25.6666 14.6446 25.1442 15.1669 24.4999 15.1669H3.49991C2.85559 15.1669 2.33325 14.6446 2.33325 14.0002Z" fill="white"/>
<path fill-rule="evenodd" clip-rule="evenodd" d="M16.6752 6.1752C17.1307 5.71959 17.8695 5.71959 18.3251 6.1752L25.3251 13.1753C25.7806 13.6308 25.7806 14.3696 25.3251 14.8252L18.3251 21.8252C17.8695 22.2807 17.1307 22.2807 16.6752 21.8252C16.2196 21.3696 16.2196 20.6308 16.6752 20.1753L22.8502 14.0002L16.6752 7.82512C16.2196 7.3695 16.2196 6.63082 16.6752 6.1752Z" fill="white"/>
</svg>
