<svg width="1440" height="156" viewBox="0 0 1440 156" fill="none" xmlns="http://www.w3.org/2000/svg">
<mask id="mask0_11_6291" style="mask-type:alpha" maskUnits="userSpaceOnUse" x="0" y="0" width="1440" height="156">
<rect y="0.410065" width="1440" height="155.59" fill="#D9D9D9"/>
</mask>
<g mask="url(#mask0_11_6291)">
<path d="M-1201.13 48.1924C-1201.13 48.1924 -1099.63 7.99015 -959.747 4.50391C-795.61 0.413166 -797.448 47.2652 -631.47 48.1924C-458.116 49.1608 -452.498 4.86847 -279.055 4.50391C-102.606 4.13303 -93.2496 49.5482 83.0148 48.1924C248.904 46.9165 245.484 6.03358 411.292 4.50391C589.739 2.85763 601.88 48.5586 780.603 48.1924C956.299 47.8325 964.581 5.03923 1140.26 4.50391C1320.49 3.95472 1334.92 50.9009 1514.4 48.1924C1674.03 45.7835 1664.41 7.8839 1823.36 4.50391C2012.07 0.4914 2038.61 47.4593 2228.88 48.1924C2426.27 48.9529 2458.7 4.00312 2656.13 4.50391C2848.79 4.99264 2876.48 46.5103 3068.89 48.1924C3278.92 50.0287 3326.67 -0.468937 3534.75 4.50391C3715.81 8.83096 3889.58 54.0436 3889.58 54.0436V74.9486V156H-1201.13V48.1924Z" fill="#24335C"/>
</g>
</svg>
