<svg width="32" height="33" viewBox="0 0 32 33" fill="none" xmlns="http://www.w3.org/2000/svg">
<path d="M11.6478 9.16534C11.9188 9.17673 12.2186 9.18977 12.5034 9.84013C12.6981 10.2847 13.0257 11.1136 13.2867 11.7741C13.479 12.2609 13.6353 12.6562 13.6756 12.7391C13.7707 12.9344 13.834 13.1624 13.7073 13.4232C13.6883 13.4622 13.6708 13.499 13.654 13.5342C13.5587 13.7339 13.4887 13.8806 13.3274 14.0745C13.2642 14.1503 13.1989 14.232 13.1335 14.3136C13.0022 14.4776 12.871 14.6416 12.757 14.7584C12.5663 14.9531 12.3682 15.1647 12.59 15.5553C12.8119 15.9463 13.575 17.2247 14.7054 18.2598C15.9196 19.3718 16.9745 19.8422 17.5102 20.081C17.6154 20.128 17.7006 20.1659 17.7631 20.1981C18.1433 20.3934 18.3652 20.3609 18.587 20.0998C18.8088 19.8394 19.5371 18.96 19.7907 18.5694C20.0441 18.1784 20.2977 18.2435 20.6462 18.3737C20.9949 18.5039 22.8642 19.4488 23.2445 19.6441C23.3186 19.6822 23.3879 19.7165 23.4522 19.7484C23.7176 19.88 23.8968 19.9688 23.9733 20.0998C24.0684 20.2632 24.0684 21.0448 23.7515 21.9566C23.4346 22.8686 21.8822 23.7481 21.185 23.8132C21.1179 23.8195 21.0512 23.8275 20.9826 23.8358C20.3383 23.9136 19.5251 24.0118 16.6222 22.8361C13.0503 21.3892 10.6951 17.8039 10.2085 17.0632C10.1686 17.0024 10.1413 16.9608 10.1269 16.9411L10.1226 16.9353C9.9176 16.6538 8.57426 14.8099 8.57426 12.9019C8.57426 11.1033 9.435 10.1605 9.83102 9.72673C9.85808 9.69709 9.88297 9.66983 9.90527 9.64483C10.2536 9.254 10.6656 9.1562 10.9191 9.1562C10.933 9.1562 10.9469 9.1562 10.9608 9.15619C11.2002 9.15616 11.4384 9.15613 11.6478 9.16534Z" fill="url(#paint0_linear_11_4530)"/>
<path fill-rule="evenodd" clip-rule="evenodd" d="M3.13529 24.1621C1.78448 21.7971 1.07837 19.1168 1.07837 16.3419C1.07837 7.73333 7.92454 0.732986 16.3057 0.732986C20.3889 0.732986 24.1957 2.37271 27.0815 5.30528C29.9367 8.26939 31.5331 12.1795 31.5331 16.3734C31.5331 24.9819 24.6869 31.9823 16.3057 31.9823C13.7576 31.9823 11.2402 31.3516 9.02975 30.0903L0.955566 32.2661L3.13529 24.1621ZM5.59132 23.2791L5.89832 23.7521L4.60891 28.5452L9.39816 27.2523L9.85866 27.5361C11.7928 28.7344 14.0339 29.365 16.3057 29.365C23.2747 29.365 28.9543 23.5314 28.9543 16.3734C28.9543 12.9048 27.6342 9.62531 25.2395 7.16573C22.8756 4.73769 19.6828 3.38176 16.3057 3.38176C9.33676 3.38176 3.6572 9.18385 3.6572 16.3734C3.6572 18.8014 4.3326 21.198 5.59132 23.2791Z" fill="url(#paint1_linear_11_4530)"/>
<defs>
<linearGradient id="paint0_linear_11_4530" x1="0.955566" y1="16.5013" x2="31.5331" y2="16.5013" gradientUnits="userSpaceOnUse">
<stop stop-color="white"/>
<stop offset="0.609375" stop-color="white"/>
<stop offset="1" stop-color="white"/>
</linearGradient>
<linearGradient id="paint1_linear_11_4530" x1="0.955566" y1="16.5013" x2="31.5331" y2="16.5013" gradientUnits="userSpaceOnUse">
<stop stop-color="white"/>
<stop offset="0.609375" stop-color="white"/>
<stop offset="1" stop-color="white"/>
</linearGradient>
</defs>
</svg>
